<svg width="250" height="36" viewBox="0 0 250 36" fill="none" xmlns="http://www.w3.org/2000/svg">
<path d="M11.9696 19.1629L0 3.3619H10.0868L16.3405 12.1029L22.5943 3.3619H32.6811L20.7115 19.1629V26.8952H11.9696V19.1629Z" fill="#FF7500"/>
<path d="M40.6751 27.2314C32.1013 27.2314 26.9571 24.273 26.9571 16.8095C26.9571 9.3461 32.1013 6.38762 40.6751 6.38762C49.2488 6.38762 54.3931 9.3461 54.3931 16.8095C54.3931 24.273 49.2488 27.2314 40.6751 27.2314ZM40.6751 20.5076C44.2727 20.5076 46.3237 19.768 46.3237 16.8095C46.3237 13.851 44.2727 13.1114 40.6751 13.1114C37.0775 13.1114 35.0265 13.851 35.0265 16.8095C35.0265 19.768 37.0775 20.5076 40.6751 20.5076Z" fill="#FF7500"/>
<path d="M74.43 6.72381H82.4994V24.3066C82.4994 32.3751 76.7163 35.3 69.7901 35.3C64.0406 35.3 59.0981 34.2242 57.1816 33.7199V27.1642C59.5016 27.6012 63.9398 28.5762 68.3107 28.5762C72.2445 28.5762 74.3627 27.6349 74.43 22.5248C72.6816 24.6428 69.8237 25.8867 65.7554 25.8867C59.5352 25.8867 55.0634 22.9282 55.0634 16.1371C55.0634 9.3461 59.5352 6.38762 65.7554 6.38762C69.8237 6.38762 72.6816 7.63152 74.43 9.74952V6.72381ZM68.7814 19.1629C73.0515 19.1629 74.43 18.4232 74.43 16.1371C74.43 13.851 73.0515 13.1114 68.7814 13.1114C64.5113 13.1114 63.1328 13.851 63.1328 16.1371C63.1328 18.4232 64.5113 19.1629 68.7814 19.1629Z" fill="#FF7500"/>
<path d="M103.377 6.72381H112.119L100.653 35.3H91.9116L95.2738 26.8952H91.5753L83.1697 6.72381H91.9116L97.7619 20.743L103.377 6.72381Z" fill="#FF7500"/>
<path d="M123.879 6.38762C132.15 6.38762 136.857 9.21162 136.925 16.9104V26.8952H128.855V24.441C125.728 26.7271 122.232 27.2314 118.735 27.2314C114.129 27.2314 110.094 25.5841 110.094 21.2136C110.094 15.969 116.146 14.5907 122.03 14.5907C124.854 14.5907 127.006 14.9605 128.855 15.6329C128.855 13.2123 126.3 13.1114 123.61 13.1114C121.021 13.1114 118.063 13.3468 114.364 14.1536L111.741 8.43838C115.776 7.12724 120.147 6.38762 123.879 6.38762ZM128.855 20.3059V19.4654C127.578 19.1292 125.829 18.9611 123.509 18.9611C119.777 18.9611 118.163 19.2973 118.163 20.5749C118.163 21.6843 119.105 21.8524 121.156 21.8524C123.879 21.8524 126.838 21.18 128.855 20.3059Z" fill="#FF7500"/>
<path d="M154.682 6.38762C159.893 6.38762 165.71 8.67371 165.71 16.8095C165.71 24.9453 159.893 27.2314 154.682 27.2314C151.555 27.2314 148.461 26.2901 146.343 24.1385V26.8952H138.274V0H146.343V9.48057C148.461 7.32895 151.555 6.38762 154.682 6.38762ZM151.992 20.5076C155.589 20.5076 157.64 19.768 157.64 16.8095C157.64 13.851 155.589 13.1114 151.992 13.1114C148.394 13.1114 146.343 13.851 146.343 16.8095C146.343 19.768 148.394 20.5076 151.992 20.5076Z" fill="#FF7500"/>
<path d="M179.501 6.38762C187.772 6.38762 192.479 9.21162 192.546 16.9104V26.8952H184.477V24.441C181.35 26.7271 177.853 27.2314 174.357 27.2314C169.75 27.2314 165.716 25.5841 165.716 21.2136C165.716 15.969 171.768 14.5907 177.652 14.5907C180.476 14.5907 182.628 14.9605 184.477 15.6329C184.477 13.2123 181.922 13.1114 179.232 13.1114C176.643 13.1114 173.684 13.3468 169.986 14.1536L167.363 8.43838C171.398 7.12724 175.769 6.38762 179.501 6.38762ZM184.477 20.3059V19.4654C183.199 19.1292 181.451 18.9611 179.131 18.9611C175.399 18.9611 173.785 19.2973 173.785 20.5749C173.785 21.6843 174.726 21.8524 176.777 21.8524C179.501 21.8524 182.46 21.18 184.477 20.3059Z" fill="#FF7500"/>
<path d="M211.387 6.38762C215.926 6.38762 221.07 7.79962 221.07 15.095V26.8952H213.001V18.3896C213.001 14.9269 211.757 13.4476 208.126 13.4476C205.738 13.4476 203.217 14.4898 201.637 16.0027V26.8952H193.567V6.72381H201.637V9.41333C204.057 7.73238 207.151 6.38762 211.387 6.38762Z" fill="#FF7500"/>
<path d="M235.482 27.2314C226.908 27.2314 221.764 24.273 221.764 16.8095C221.764 9.3461 226.908 6.38762 235.482 6.38762C244.056 6.38762 249.2 9.3461 249.2 16.8095C249.2 24.273 244.056 27.2314 235.482 27.2314ZM235.482 20.5076C239.08 20.5076 241.131 19.768 241.131 16.8095C241.131 13.851 239.08 13.1114 235.482 13.1114C231.884 13.1114 229.833 13.851 229.833 16.8095C229.833 19.768 231.884 20.5076 235.482 20.5076Z" fill="#FF7500"/>
</svg>
